<svg xmlns="http://www.w3.org/2000/svg" version="1.1" xmlns:xlink="http://www.w3.org/1999/xlink" xmlns:svgjs="http://svgjs.com/svgjs" width="1440" height="560" preserveAspectRatio="none" viewBox="0 0 1440 560"><g mask="url(&quot;#SvgjsMask1003&quot;)" fill="none"><rect width="1440" height="560" x="0" y="0" fill="#0e2a47"></rect><path d="M30.15 143.93L85.9 143.93L85.9 199.68L30.15 199.68z" fill="rgba(18, 33, 190, 1)"></path><path d="M1418.75 76.26L1439.09 76.26L1439.09 93.23L1418.75 93.23z" stroke="#037b0b"></path><path d="M674.96 495.56L698.87 495.56L698.87 512.61L674.96 512.61z" stroke="rgba(42, 164, 105, 1)"></path><path d="M1100.4 484.47a33.78 33.78 0 1 0-66.12-13.88z" fill="#d3b714"></path><path d="M1025.83 509.68L1041.83 509.68L1041.83 515.66L1025.83 515.66z" stroke="rgba(212, 102, 28, 1)"></path><path d="M1296.06 49.44L1333.73 49.44L1333.73 62.66L1296.06 62.66z" fill="#d3b714"></path><path d="M412.12 441.66L427.49 441.66L427.49 457.03L412.12 457.03z" fill="rgba(42, 164, 105, 1)"></path><path d="M23.28 248.9L78.46 248.9L78.46 304.08L23.28 304.08z" fill="rgba(42, 164, 105, 1)"></path><path d="M1298 343.95a43.81 43.81 0 1 0-0.38-87.62z" fill="rgba(212, 102, 28, 1)"></path><path d="M1290.95 491.98L1314.12 491.98L1314.12 515.15L1290.95 515.15z" stroke="#d3b714"></path><path d="M1238.8 233.34a43.45 43.45 0 1 0 45.97 73.75z" fill="rgba(18, 33, 190, 1)"></path><path d="M376.88 347.49L406.97 347.49L406.97 377.58L376.88 377.58z" stroke="#037b0b"></path><path d="M808.67 301.41a29.59 29.59 0 1 0-17.99 56.38z" stroke="rgba(212, 102, 28, 1)"></path><path d="M1152.26 556.38L1199.34 556.38L1199.34 612.24L1152.26 612.24z" stroke="#037b0b"></path><path d="M1029.19 68.18 a27.51 27.51 0 1 0 55.02 0 a27.51 27.51 0 1 0 -55.02 0z" stroke="#037b0b"></path><path d="M1177.09 31.67L1179.99 31.67L1179.99 78.95L1177.09 78.95z" fill="#037b0b"></path><path d="M64.91 132.33 a19.9 19.9 0 1 0 39.8 0 a19.9 19.9 0 1 0 -39.8 0z" stroke="rgba(18, 33, 190, 1)"></path><path d="M600.79 43.78L604.74 43.78L604.74 47.73L600.79 47.73z" stroke="rgba(42, 164, 105, 1)"></path><path d="M721.19 139.03L737.14 139.03L737.14 150.41L721.19 150.41z" fill="#037b0b"></path><path d="M881.01 467.96L924.06 467.96L924.06 522.84L881.01 522.84z" fill="rgba(212, 102, 28, 1)"></path><path d="M629.62 136.7L653.92 136.7L653.92 161L629.62 161z" fill="#d3b714"></path><path d="M1128.91 176.1L1166.3 176.1L1166.3 213.49L1128.91 213.49z" stroke="rgba(42, 164, 105, 1)"></path><path d="M506.27 389.39 a28.17 28.17 0 1 0 56.34 0 a28.17 28.17 0 1 0 -56.34 0z" stroke="#037b0b"></path><path d="M248.48 120.43 a12.15 12.15 0 1 0 24.3 0 a12.15 12.15 0 1 0 -24.3 0z" fill="#e73635"></path><path d="M84.72 67.64 a22.11 22.11 0 1 0 44.22 0 a22.11 22.11 0 1 0 -44.22 0z" fill="#d3b714"></path><path d="M1027.14 471.07L1049.87 471.07L1049.87 493.8L1027.14 493.8z" fill="#e73635"></path><path d="M1145.18 543.88L1196.13 543.88L1196.13 594.83L1145.18 594.83z" stroke="#037b0b"></path><path d="M797.34 323.87 a0.97 0.97 0 1 0 1.94 0 a0.97 0.97 0 1 0 -1.94 0z" fill="#037b0b"></path><path d="M597.48 504.92L635.09 504.92L635.09 542.53L597.48 542.53z" stroke="#d3b714"></path><path d="M841.96 402.03L879.3 402.03L879.3 452.41L841.96 452.41z" stroke="#e73635"></path><path d="M569.94 208.45L591.35 208.45L591.35 236.99L569.94 236.99z" stroke="rgba(18, 33, 190, 1)"></path><path d="M756.24 262.12a12.2 12.2 0 1 0-5.93-23.67z" fill="#037b0b"></path><path d="M559.41 446.68L607.48 446.68L607.48 494.75L559.41 494.75z" stroke="rgba(18, 33, 190, 1)"></path></g><defs><mask id="SvgjsMask1003"><rect width="1440" height="560" fill="#ffffff"></rect></mask></defs></svg>