<svg xmlns="http://www.w3.org/2000/svg" version="1.1" xmlns:xlink="http://www.w3.org/1999/xlink" xmlns:svgjs="http://svgjs.com/svgjs" width="1440" height="560" preserveAspectRatio="none" viewBox="0 0 1440 560"><g mask="url(&quot;#SvgjsMask1000&quot;)" fill="none"><rect width="1440" height="560" x="0" y="0" fill="#0e2a47"></rect><path d="M720 685.55C825.13 684.74 919.07 627.75 992.82 552.82 1065.88 478.56 1112.29 383.97 1119.06 280 1126.33 168.28 1104.23 53.73 1030.76-30.76 952.46-120.79 839.27-175.91 720-178.9 597.91-181.96 469.73-141.97 393.26-46.74 321.79 42.24 342.12 166.24 351.47 280 359.74 380.78 374.83 482.33 442.83 557.17 514.03 635.5 614.16 686.4 720 685.55" fill="#1c538e"></path><path d="M720 542.42C788.02 541.89 848.81 505.02 896.53 456.53 943.81 408.48 973.84 347.28 978.21 280 982.92 207.71 968.62 133.59 921.08 78.92 870.41 20.66 797.18-15 720-16.93 641-18.91 558.06 6.96 508.58 68.58 462.34 126.15 475.49 206.39 481.54 280 486.89 345.21 496.66 410.92 540.66 459.34 586.72 510.03 651.51 542.97 720 542.42" fill="#2774c6"></path><path d="M720 399.28C750.92 399.04 778.55 382.28 800.24 360.24 821.73 338.4 835.38 310.58 837.37 280 839.51 247.14 833.01 213.45 811.4 188.6 788.37 162.12 755.08 145.91 720 145.03 684.09 144.13 646.39 155.89 623.9 183.9 602.88 210.07 608.86 246.54 611.61 280 614.04 309.64 618.48 339.51 638.48 361.52 659.42 384.56 688.87 399.53 720 399.28" fill="#488fdb"></path></g><defs><mask id="SvgjsMask1000"><rect width="1440" height="560" fill="#ffffff"></rect></mask></defs></svg>